<?xml version="1.0" encoding="utf-8"?>
<!-- Generator: Adobe Illustrator 15.0.0, SVG Export Plug-In . SVG Version: 6.00 Build 0)  -->
<!DOCTYPE svg PUBLIC "-//W3C//DTD SVG 1.1//EN" "http://www.w3.org/Graphics/SVG/1.1/DTD/svg11.dtd">
<svg version="1.1" id="Layer_1" xmlns="http://www.w3.org/2000/svg" xmlns:xlink="http://www.w3.org/1999/xlink" x="0px" y="0px"
	 width="1840px" height="1840px" viewBox="0 0 1840 1840" enable-background="new 0 0 1840 1840" xml:space="preserve">
<path fill="#FFFFFF" stroke="#000000" stroke-width="50" d="M1677.375,785.302l89.197,89.196c37.768,37.769,37.768,98.84,0,136.205
	l-780.67,781.069c-37.77,37.771-98.84,37.771-136.205,0l-780.67-780.67c-37.769-37.768-37.769-98.839,0-136.205l89.196-89.194
	c38.17-38.17,100.446-37.365,137.812,1.605l460.849,483.75V116.328c0-53.438,42.991-96.429,96.429-96.429h128.57
	c53.438,0,96.432,42.991,96.432,96.429v1154.733l461.248-484.152C1576.93,747.535,1639.205,746.73,1677.375,785.302z"/>
</svg>
