<?xml version="1.0" encoding="utf-8"?>
<!-- Generator: Adobe Illustrator 15.0.0, SVG Export Plug-In . SVG Version: 6.00 Build 0)  -->
<!DOCTYPE svg PUBLIC "-//W3C//DTD SVG 1.1//EN" "http://www.w3.org/Graphics/SVG/1.1/DTD/svg11.dtd">
<svg version="1.1" id="Layer_1" xmlns="http://www.w3.org/2000/svg" xmlns:xlink="http://www.w3.org/1999/xlink" x="0px" y="0px"
	 width="1840px" height="1840px" viewBox="-19.5 980.5 1840 1840" enable-background="new -19.5 980.5 1840 1840"
	 xml:space="preserve">
<path stroke="#000000" stroke-width="23" d="M1659.375,1765.202l89.197,89.196c37.768,37.769,37.768,98.84,0,136.205
	l-780.67,781.071c-37.768,37.769-98.839,37.769-136.205,0l-780.67-780.67c-37.769-37.768-37.769-98.839,0-136.205l89.196-89.196
	c38.17-38.17,100.446-37.365,137.812,1.607l460.849,483.75V1096.229c0-53.438,42.991-96.429,96.429-96.429h128.57
	c53.438,0,96.43,42.991,96.43,96.429v1154.733l461.25-484.152C1558.93,1727.435,1621.205,1726.631,1659.375,1765.202z"/>
</svg>
