<?xml version="1.0" encoding="utf-8"?>
<!-- Generator: Adobe Illustrator 15.0.0, SVG Export Plug-In . SVG Version: 6.00 Build 0)  -->
<!DOCTYPE svg PUBLIC "-//W3C//DTD SVG 1.1//EN" "http://www.w3.org/Graphics/SVG/1.1/DTD/svg11.dtd">
<svg version="1.1" id="Layer_1" xmlns="http://www.w3.org/2000/svg" xmlns:xlink="http://www.w3.org/1999/xlink" x="0px" y="0px"
	 width="1840px" height="1840px" viewBox="-19.5 980.5 1840 1840" enable-background="new -19.5 980.5 1840 1840"
	 xml:space="preserve">
<path stroke="#000000" stroke-width="23" d="M140.223,2034.599l-89.196-89.196c-37.768-37.769-37.768-98.84,0-136.205
	l780.669-781.071c37.768-37.769,98.839-37.769,136.205,0l780.67,780.67c37.769,37.768,37.769,98.839,0,136.205l-89.196,89.196
	c-38.17,38.17-100.446,37.365-137.812-1.607l-460.849-483.75v1154.732c0,53.438-42.991,96.429-96.429,96.429h-128.57
	c-53.438,0-96.43-42.991-96.43-96.429V1548.839l-461.25,484.152C240.669,2072.366,178.393,2073.17,140.223,2034.599z"/>
</svg>
