<?xml version="1.0" encoding="utf-8"?>
<!-- Generator: Adobe Illustrator 15.0.0, SVG Export Plug-In . SVG Version: 6.00 Build 0)  -->
<!DOCTYPE svg PUBLIC "-//W3C//DTD SVG 1.1//EN" "http://www.w3.org/Graphics/SVG/1.1/DTD/svg11.dtd">
<svg version="1.1" id="Layer_1" xmlns="http://www.w3.org/2000/svg" xmlns:xlink="http://www.w3.org/1999/xlink" x="0px" y="0px"
	 width="1840px" height="1840px" viewBox="0 0 1840 1840" enable-background="new 0 0 1840 1840" xml:space="preserve">
<path fill="#FFFFFF" stroke="#000000" stroke-width="50" d="M160.424,1054.696l-89.196-89.194
	c-37.768-37.771-37.768-98.842,0-136.205L851.897,48.226c37.768-37.77,98.839-37.77,136.205,0l780.67,780.67
	c37.769,37.769,37.769,98.839,0,136.205l-89.196,89.196c-38.17,38.17-100.446,37.363-137.812-1.607l-460.849-483.75v1154.731
	c0,53.438-42.991,96.43-96.429,96.43h-128.57c-53.438,0-96.43-42.991-96.43-96.43V568.937l-461.25,484.152
	C260.87,1092.464,198.594,1093.268,160.424,1054.696z"/>
</svg>
